<?xml version="1.0" encoding="UTF-8" standalone="no"?>
<!DOCTYPE svg PUBLIC "-//W3C//DTD SVG 1.1//EN"
 "http://www.w3.org/Graphics/SVG/1.1/DTD/svg11.dtd">
<!-- Generated by graphviz version 2.38.0 (20140413.2041)
 -->
<!-- Title: G Pages: 1 -->
<svg width="633pt" height="888pt"
 viewBox="0.00 0.00 633.07 888.00" xmlns="http://www.w3.org/2000/svg" xmlns:xlink="http://www.w3.org/1999/xlink">
<g id="graph0" class="graph" transform="scale(1 1) rotate(0) translate(4 884)">
<title>G</title>
<polygon fill="white" stroke="none" points="-4,4 -4,-884 629.071,-884 629.071,4 -4,4"/>
<g id="clust1" class="cluster"><title>cluster_Global</title>
<path fill="none" stroke="gray" d="M386.071,-8C386.071,-8 605.071,-8 605.071,-8 611.071,-8 617.071,-14 617.071,-20 617.071,-20 617.071,-860 617.071,-860 617.071,-866 611.071,-872 605.071,-872 605.071,-872 386.071,-872 386.071,-872 380.071,-872 374.071,-866 374.071,-860 374.071,-860 374.071,-20 374.071,-20 374.071,-14 380.071,-8 386.071,-8"/>
<text text-anchor="middle" x="495.571" y="-859.2" font-family="Times,serif" font-size="11.00" fill="gray">Global</text>
</g>
<g id="clust2" class="cluster"><title>cluster_\Kumuwai</title>
<path fill="none" stroke="gray" d="M394.071,-60C394.071,-60 597.071,-60 597.071,-60 603.071,-60 609.071,-66 609.071,-72 609.071,-72 609.071,-832 609.071,-832 609.071,-838 603.071,-844 597.071,-844 597.071,-844 394.071,-844 394.071,-844 388.071,-844 382.071,-838 382.071,-832 382.071,-832 382.071,-72 382.071,-72 382.071,-66 388.071,-60 394.071,-60"/>
<text text-anchor="middle" x="495.571" y="-831.2" font-family="Times,serif" font-size="11.00" fill="gray">Kumuwai</text>
</g>
<g id="clust3" class="cluster"><title>cluster_\Kumuwai\LocalStripe</title>
<path fill="none" stroke="gray" d="M402.071,-68C402.071,-68 589.071,-68 589.071,-68 595.071,-68 601.071,-74 601.071,-80 601.071,-80 601.071,-804 601.071,-804 601.071,-810 595.071,-816 589.071,-816 589.071,-816 402.071,-816 402.071,-816 396.071,-816 390.071,-810 390.071,-804 390.071,-804 390.071,-80 390.071,-80 390.071,-74 396.071,-68 402.071,-68"/>
<text text-anchor="middle" x="495.571" y="-803.2" font-family="Times,serif" font-size="11.00" fill="gray">LocalStripe</text>
</g>
<g id="clust4" class="cluster"><title>cluster_\Kumuwai\LocalStripe\Models</title>
<path fill="none" stroke="gray" d="M410.071,-446C410.071,-446 581.071,-446 581.071,-446 587.071,-446 593.071,-452 593.071,-458 593.071,-458 593.071,-776 593.071,-776 593.071,-782 587.071,-788 581.071,-788 581.071,-788 410.071,-788 410.071,-788 404.071,-788 398.071,-782 398.071,-776 398.071,-776 398.071,-458 398.071,-458 398.071,-452 404.071,-446 410.071,-446"/>
<text text-anchor="middle" x="495.571" y="-775.2" font-family="Times,serif" font-size="11.00" fill="gray">Models</text>
</g>
<!-- \\Kumuwai\\LocalStripe\\Models\\StripeCustomer -->
<g id="node1" class="node"><title>\\Kumuwai\\LocalStripe\\Models\\StripeCustomer</title>
<polygon fill="none" stroke="black" points="551.071,-760 440.071,-760 440.071,-724 551.071,-724 551.071,-760"/>
<text text-anchor="middle" x="495.571" y="-739.2" font-family="Courier,monospace" font-size="11.00">StripeCustomer</text>
</g>
<!-- \\Illuminate\\Database\\Eloquent\\Model -->
<g id="node18" class="node"><title>\\Illuminate\\Database\\Eloquent\\Model</title>
<ellipse fill="none" stroke="black" cx="163.785" cy="-607" rx="144.075" ry="18"/>
<text text-anchor="middle" x="163.785" y="-603.3" font-family="Times,serif" font-size="14.00" fill="gray">\Illuminate\Database\Eloquent\Model</text>
</g>
<!-- \\Kumuwai\\LocalStripe\\Models\\StripeCustomer&#45;&gt;\\Illuminate\\Database\\Eloquent\\Model -->
<g id="edge4" class="edge"><title>\\Kumuwai\\LocalStripe\\Models\\StripeCustomer&#45;&gt;\\Illuminate\\Database\\Eloquent\\Model</title>
<path fill="none" stroke="black" d="M440.04,-732.86C419.073,-728.552 395.128,-722.649 374.071,-715 311.011,-692.095 242.806,-654.181 201.96,-629.91"/>
<polygon fill="none" stroke="black" points="203.553,-626.784 193.175,-624.649 199.956,-632.79 203.553,-626.784"/>
</g>
<!-- \\Kumuwai\\LocalStripe\\Models\\StripeBalanceTransaction -->
<g id="node2" class="node"><title>\\Kumuwai\\LocalStripe\\Models\\StripeBalanceTransaction</title>
<polygon fill="none" stroke="black" points="585.071,-706 406.071,-706 406.071,-670 585.071,-670 585.071,-706"/>
<text text-anchor="middle" x="495.571" y="-685.2" font-family="Courier,monospace" font-size="11.00">StripeBalanceTransaction</text>
</g>
<!-- \\Kumuwai\\LocalStripe\\Models\\StripeBalanceTransaction&#45;&gt;\\Illuminate\\Database\\Eloquent\\Model -->
<g id="edge5" class="edge"><title>\\Kumuwai\\LocalStripe\\Models\\StripeBalanceTransaction&#45;&gt;\\Illuminate\\Database\\Eloquent\\Model</title>
<path fill="none" stroke="black" d="M412.493,-669.98C399.618,-667.046 386.472,-663.988 374.071,-661 327.9,-649.874 276.228,-636.55 235.779,-625.921"/>
<polygon fill="none" stroke="black" points="236.574,-622.511 226.012,-623.35 234.792,-629.281 236.574,-622.511"/>
</g>
<!-- \\Kumuwai\\LocalStripe\\Models\\StripeCharge -->
<g id="node3" class="node"><title>\\Kumuwai\\LocalStripe\\Models\\StripeCharge</title>
<polygon fill="none" stroke="black" points="544.571,-652 446.571,-652 446.571,-616 544.571,-616 544.571,-652"/>
<text text-anchor="middle" x="495.571" y="-631.2" font-family="Courier,monospace" font-size="11.00">StripeCharge</text>
</g>
<!-- \\Kumuwai\\LocalStripe\\Models\\StripeCharge&#45;&gt;\\Illuminate\\Database\\Eloquent\\Model -->
<g id="edge6" class="edge"><title>\\Kumuwai\\LocalStripe\\Models\\StripeCharge&#45;&gt;\\Illuminate\\Database\\Eloquent\\Model</title>
<path fill="none" stroke="black" d="M446.264,-630.045C406.514,-626.791 348.258,-622.021 295.042,-617.664"/>
<polygon fill="none" stroke="black" points="295.074,-614.155 284.822,-616.828 294.503,-621.132 295.074,-614.155"/>
</g>
<!-- \\Kumuwai\\LocalStripe\\Models\\StripeCard -->
<g id="node4" class="node"><title>\\Kumuwai\\LocalStripe\\Models\\StripeCard</title>
<polygon fill="none" stroke="black" points="537.571,-598 453.571,-598 453.571,-562 537.571,-562 537.571,-598"/>
<text text-anchor="middle" x="495.571" y="-577.2" font-family="Courier,monospace" font-size="11.00">StripeCard</text>
</g>
<!-- \\Kumuwai\\LocalStripe\\Models\\StripeCard&#45;&gt;\\Illuminate\\Database\\Eloquent\\Model -->
<g id="edge7" class="edge"><title>\\Kumuwai\\LocalStripe\\Models\\StripeCard&#45;&gt;\\Illuminate\\Database\\Eloquent\\Model</title>
<path fill="none" stroke="black" d="M453.47,-583.365C413.808,-586.612 351.626,-591.703 295.115,-596.33"/>
<polygon fill="none" stroke="black" points="294.685,-592.853 285.004,-597.158 295.256,-599.83 294.685,-592.853"/>
</g>
<!-- \\Kumuwai\\LocalStripe\\Models\\StripeMetadata -->
<g id="node5" class="node"><title>\\Kumuwai\\LocalStripe\\Models\\StripeMetadata</title>
<polygon fill="none" stroke="black" points="551.071,-544 440.071,-544 440.071,-508 551.071,-508 551.071,-544"/>
<text text-anchor="middle" x="495.571" y="-523.2" font-family="Courier,monospace" font-size="11.00">StripeMetadata</text>
</g>
<!-- \\Kumuwai\\LocalStripe\\Models\\StripeMetadata&#45;&gt;\\Illuminate\\Database\\Eloquent\\Model -->
<g id="edge8" class="edge"><title>\\Kumuwai\\LocalStripe\\Models\\StripeMetadata&#45;&gt;\\Illuminate\\Database\\Eloquent\\Model</title>
<path fill="none" stroke="black" d="M439.898,-537.861C419.238,-542.446 395.538,-547.827 374.071,-553 327.9,-564.126 276.228,-577.45 235.779,-588.079"/>
<polygon fill="none" stroke="black" points="234.792,-584.719 226.012,-590.65 236.574,-591.489 234.792,-584.719"/>
</g>
<!-- \\Kumuwai\\LocalStripe\\Models\\StripeAddress -->
<g id="node6" class="node"><title>\\Kumuwai\\LocalStripe\\Models\\StripeAddress</title>
<polygon fill="none" stroke="black" points="547.571,-490 443.571,-490 443.571,-454 547.571,-454 547.571,-490"/>
<text text-anchor="middle" x="495.571" y="-469.2" font-family="Courier,monospace" font-size="11.00">StripeAddress</text>
</g>
<!-- \\Kumuwai\\LocalStripe\\Models\\StripeAddress&#45;&gt;\\Illuminate\\Database\\Eloquent\\Model -->
<g id="edge9" class="edge"><title>\\Kumuwai\\LocalStripe\\Models\\StripeAddress&#45;&gt;\\Illuminate\\Database\\Eloquent\\Model</title>
<path fill="none" stroke="black" d="M443.324,-480.473C421.602,-484.831 396.237,-490.949 374.071,-499 311.011,-521.905 242.806,-559.819 201.96,-584.09"/>
<polygon fill="none" stroke="black" points="199.956,-581.21 193.175,-589.351 203.553,-587.216 199.956,-581.21"/>
</g>
<!-- \\Kumuwai\\LocalStripe\\Connector -->
<g id="node7" class="node"><title>\\Kumuwai\\LocalStripe\\Connector</title>
<polygon fill="none" stroke="black" points="534.071,-436 457.071,-436 457.071,-400 534.071,-400 534.071,-436"/>
<text text-anchor="middle" x="495.571" y="-415.2" font-family="Courier,monospace" font-size="11.00">Connector</text>
</g>
<!-- \\Kumuwai\\LocalStripe\\LocalStripeServiceProvider -->
<g id="node8" class="node"><title>\\Kumuwai\\LocalStripe\\LocalStripeServiceProvider</title>
<polygon fill="none" stroke="black" points="591.571,-382 399.571,-382 399.571,-346 591.571,-346 591.571,-382"/>
<text text-anchor="middle" x="495.571" y="-361.2" font-family="Courier,monospace" font-size="11.00">LocalStripeServiceProvider</text>
</g>
<!-- \\Illuminate\\Support\\ServiceProvider -->
<g id="node15" class="node"><title>\\Illuminate\\Support\\ServiceProvider</title>
<ellipse fill="none" stroke="black" cx="163.785" cy="-364" rx="139.175" ry="18"/>
<text text-anchor="middle" x="163.785" y="-360.3" font-family="Times,serif" font-size="14.00" fill="gray">\Illuminate\Support\ServiceProvider</text>
</g>
<!-- \\Kumuwai\\LocalStripe\\LocalStripeServiceProvider&#45;&gt;\\Illuminate\\Support\\ServiceProvider -->
<g id="edge1" class="edge"><title>\\Kumuwai\\LocalStripe\\LocalStripeServiceProvider&#45;&gt;\\Illuminate\\Support\\ServiceProvider</title>
<path fill="none" stroke="black" d="M399.183,-364C372.297,-364 342.393,-364 313.186,-364"/>
<polygon fill="none" stroke="black" points="312.89,-360.5 302.89,-364 312.89,-367.5 312.89,-360.5"/>
</g>
<!-- \\Kumuwai\\LocalStripe\\Fetcher -->
<g id="node9" class="node"><title>\\Kumuwai\\LocalStripe\\Fetcher</title>
<polygon fill="none" stroke="black" points="527.571,-328 463.571,-328 463.571,-292 527.571,-292 527.571,-328"/>
<text text-anchor="middle" x="495.571" y="-307.2" font-family="Courier,monospace" font-size="11.00">Fetcher</text>
</g>
<!-- \\Kumuwai\\LocalStripe\\ParameterParser -->
<g id="node10" class="node"><title>\\Kumuwai\\LocalStripe\\ParameterParser</title>
<polygon fill="none" stroke="black" points="554.571,-274 436.571,-274 436.571,-238 554.571,-238 554.571,-274"/>
<text text-anchor="middle" x="495.571" y="-253.2" font-family="Courier,monospace" font-size="11.00">ParameterParser</text>
</g>
<!-- \\Kumuwai\\LocalStripe\\LocalStripe -->
<g id="node11" class="node"><title>\\Kumuwai\\LocalStripe\\LocalStripe</title>
<polygon fill="none" stroke="black" points="541.071,-220 450.071,-220 450.071,-184 541.071,-184 541.071,-220"/>
<text text-anchor="middle" x="495.571" y="-199.2" font-family="Courier,monospace" font-size="11.00">LocalStripe</text>
</g>
<!-- \\Kumuwai\\LocalStripe\\LocalStripeFacade -->
<g id="node12" class="node"><title>\\Kumuwai\\LocalStripe\\LocalStripeFacade</title>
<polygon fill="none" stroke="black" points="561.071,-166 430.071,-166 430.071,-130 561.071,-130 561.071,-166"/>
<text text-anchor="middle" x="495.571" y="-145.2" font-family="Courier,monospace" font-size="11.00">LocalStripeFacade</text>
</g>
<!-- \\Illuminate\\Support\\Facades\\Facade -->
<g id="node17" class="node"><title>\\Illuminate\\Support\\Facades\\Facade</title>
<ellipse fill="none" stroke="black" cx="163.785" cy="-148" rx="137.576" ry="18"/>
<text text-anchor="middle" x="163.785" y="-144.3" font-family="Times,serif" font-size="14.00" fill="gray">\Illuminate\Support\Facades\Facade</text>
</g>
<!-- \\Kumuwai\\LocalStripe\\LocalStripeFacade&#45;&gt;\\Illuminate\\Support\\Facades\\Facade -->
<g id="edge3" class="edge"><title>\\Kumuwai\\LocalStripe\\LocalStripeFacade&#45;&gt;\\Illuminate\\Support\\Facades\\Facade</title>
<path fill="none" stroke="black" d="M429.809,-148C396.017,-148 353.195,-148 311.881,-148"/>
<polygon fill="none" stroke="black" points="311.698,-144.5 301.698,-148 311.698,-151.5 311.698,-144.5"/>
</g>
<!-- \\Kumuwai\\LocalStripe\\Pusher -->
<g id="node13" class="node"><title>\\Kumuwai\\LocalStripe\\Pusher</title>
<polygon fill="none" stroke="black" points="524.071,-112 467.071,-112 467.071,-76 524.071,-76 524.071,-112"/>
<text text-anchor="middle" x="495.571" y="-91.2" font-family="Courier,monospace" font-size="11.00">Pusher</text>
</g>
<!-- \\CreateLocalStripeTables -->
<g id="node14" class="node"><title>\\CreateLocalStripeTables</title>
<polygon fill="none" stroke="black" points="581.571,-52 409.571,-52 409.571,-16 581.571,-16 581.571,-52"/>
<text text-anchor="middle" x="495.571" y="-31.2" font-family="Courier,monospace" font-size="11.00">CreateLocalStripeTables</text>
</g>
<!-- \\Illuminate\\Database\\Migrations\\Migration -->
<g id="node16" class="node"><title>\\Illuminate\\Database\\Migrations\\Migration</title>
<ellipse fill="none" stroke="black" cx="163.785" cy="-34" rx="163.571" ry="18"/>
<text text-anchor="middle" x="163.785" y="-30.3" font-family="Times,serif" font-size="14.00" fill="gray">\Illuminate\Database\Migrations\Migration</text>
</g>
<!-- \\CreateLocalStripeTables&#45;&gt;\\Illuminate\\Database\\Migrations\\Migration -->
<g id="edge2" class="edge"><title>\\CreateLocalStripeTables&#45;&gt;\\Illuminate\\Database\\Migrations\\Migration</title>
<path fill="none" stroke="black" d="M409.214,-34C387.24,-34 362.789,-34 338.085,-34"/>
<polygon fill="none" stroke="black" points="337.866,-30.5001 327.866,-34 337.866,-37.5001 337.866,-30.5001"/>
</g>
</g>
</svg>
